<svg width="22" height="22" viewBox="0 0 22 22" fill="none" xmlns="http://www.w3.org/2000/svg">
<path d="M1.5263 20.4737C0.87008 19.8175 0.500988 18.9278 0.5 17.9997V4.00027C0.500988 3.07225 0.87008 2.18251 1.5263 1.5263C2.18251 0.87008 3.07225 0.500988 4.00027 0.5H17.9997C18.9278 0.500988 19.8175 0.87008 20.4737 1.5263C21.13 2.18257 21.4991 3.07239 21.5 4.0005V17.9995C21.4991 18.9276 21.13 19.8174 20.4737 20.4737C19.8174 21.13 18.9276 21.4991 17.9995 21.5H4.0005C3.07239 21.4991 2.18257 21.13 1.5263 20.4737ZM4 1.5L3.9995 1.5C3.3368 1.50066 2.70142 1.76421 2.23282 2.23282C1.76421 2.70142 1.50066 3.3368 1.5 3.9995V4L1.5 18L1.5 18.0005C1.50066 18.6632 1.76421 19.2986 2.23282 19.7672C2.70142 20.2358 3.3368 20.4993 3.9995 20.5H4H18H18.0005C18.6632 20.4993 19.2986 20.2358 19.7672 19.7672C20.2358 19.2986 20.4993 18.6632 20.5 18.0005V18V4V3.9995C20.4993 3.3368 20.2358 2.70142 19.7672 2.23282C19.2986 1.76421 18.6632 1.50066 18.0005 1.5H18L4 1.5Z" stroke="#8E8E8E"/>
</svg>
