<svg width="12" height="11" viewBox="0 0 12 11" fill="none" xmlns="http://www.w3.org/2000/svg">
<path d="M5.5961 1.69473L6.00541 2.25563L6.40759 1.6896C6.99307 0.865592 7.69414 0.5 8.65 0.5C10.1873 0.5 11.5 1.86309 11.5 3.625C11.5 5.20249 10.3923 6.20933 9.04366 7.32947C8.90642 7.42933 8.76797 7.55354 8.65203 7.65756C8.6054 7.6994 8.56241 7.73797 8.5246 7.77037L8.52451 7.77026L8.51552 7.77835L8.01552 8.22835L8.0155 8.22833L8.01147 8.23203C7.38575 8.8077 6.96529 9.19099 6.67075 9.44871C6.36908 9.71267 6.22468 9.8221 6.14275 9.87125C6.11262 9.88933 6.07924 9.90435 6.0484 9.91416C6.01842 9.9237 6.00186 9.92486 6.00013 9.92499C5.99998 9.925 5.99994 9.925 6 9.925C6.00006 9.925 6.00002 9.925 5.99987 9.92499C5.99814 9.92486 5.98158 9.9237 5.9516 9.91416C5.92076 9.90435 5.88738 9.88933 5.85725 9.87125C5.77703 9.82312 5.61142 9.69242 5.29636 9.41916C5.07726 9.22912 4.80356 8.98606 4.46033 8.68126C4.32805 8.56378 4.18544 8.43714 4.03165 8.30083L4.03167 8.30081L4.02809 8.2977L3.46583 7.80878C3.30345 7.64773 3.1213 7.49196 2.9737 7.3689C1.63655 6.21167 0.5 5.18301 0.5 3.625C0.5 1.86116 1.81281 0.504273 3.34324 0.524954L3.34324 0.525H3.35C4.30758 0.525 5.01058 0.892352 5.5961 1.69473Z" stroke="black"/>
</svg>
